<?xml version="1.0" encoding="UTF-8"?>
<svg xmlns="http://www.w3.org/2000/svg" xmlns:xlink="http://www.w3.org/1999/xlink" width="1996px" height="554px" viewBox="0 0 1996 554" version="1.1">
<defs>
<clipPath id="clip1">
  <path d="M 0.996094 170 L 277 170 L 277 282 L 0.996094 282 Z M 0.996094 170 "/>
</clipPath>
<clipPath id="clip2">
  <path d="M 701 170 L 1380.441406 170 L 1380.441406 282 L 701 282 Z M 701 170 "/>
</clipPath>
<clipPath id="clip3">
  <path d="M 1072.425781 314.976562 L 1380.441406 314.976562 L 1380.441406 389.898438 L 1072.425781 389.898438 Z M 1072.425781 314.976562 "/>
</clipPath>
<clipPath id="clip4">
  <path d="M 1437.671875 0.511719 L 1992.582031 0.511719 L 1992.582031 554 L 1437.671875 554 Z M 1437.671875 0.511719 "/>
</clipPath>
<clipPath id="clip5">
  <path d="M 1767 210 L 1882.785156 210 L 1882.785156 346 L 1767 346 Z M 1767 210 "/>
</clipPath>
<clipPath id="clip6">
  <path d="M 1547.464844 210 L 1664 210 L 1664 346 L 1547.464844 346 Z M 1547.464844 210 "/>
</clipPath>
<clipPath id="clip7">
  <path d="M 1673 187.183594 L 1757 187.183594 L 1757 367.839844 L 1673 367.839844 Z M 1673 187.183594 "/>
</clipPath>
</defs>
<g id="surface1">
<g clip-path="url(#clip1)" clip-rule="nonzero">
<path style=" stroke:none;fill-rule:nonzero;fill:rgb(100%,100%,100%);fill-opacity:1;" d="M 15.746094 281.183594 L 0.996094 281.183594 L 0.996094 170.136719 L 60 170.136719 L 60 184.890625 L 15.746094 184.890625 L 15.746094 212.335938 L 45.25 212.335938 L 41.917969 227.089844 L 15.746094 227.089844 Z M 120.746094 281.183594 L 84.742188 281.183594 C 81.570312 281.183594 78.875 280.074219 76.652344 277.855469 C 74.433594 275.632812 73.320312 272.9375 73.320312 269.761719 L 73.320312 170.136719 L 88.074219 170.136719 L 88.074219 260.878906 C 88.074219 262.359375 88.621094 263.648438 89.722656 264.75 C 90.84375 265.871094 92.195312 266.433594 93.78125 266.433594 L 111.707031 266.433594 C 113.292969 266.433594 114.632812 265.871094 115.734375 264.75 C 116.855469 263.648438 117.414062 262.359375 117.414062 260.878906 L 117.414062 170.136719 L 132.164062 170.136719 L 132.164062 269.761719 C 132.164062 272.9375 131.054688 275.632812 128.835938 277.855469 C 126.613281 280.074219 123.917969 281.183594 120.746094 281.183594 Z M 204.492188 281.183594 L 151.832031 281.183594 L 151.832031 170.136719 L 166.582031 170.136719 L 166.582031 266.433594 L 204.492188 266.433594 Z M 276.148438 281.183594 L 223.492188 281.183594 L 223.492188 170.136719 L 238.242188 170.136719 L 238.242188 266.433594 L 276.148438 266.433594 Z M 276.148438 281.183594 "/>
</g>
<path style=" stroke:none;fill-rule:nonzero;fill:rgb(100%,100%,100%);fill-opacity:1;" d="M 355.296875 281.183594 L 319.292969 281.183594 C 316.121094 281.183594 313.421875 280.074219 311.203125 277.855469 C 308.980469 275.632812 307.871094 272.9375 307.871094 269.761719 L 307.871094 245.175781 L 322.621094 248.503906 L 322.621094 260.722656 C 322.621094 262.308594 323.171875 263.648438 324.273438 264.75 C 325.394531 265.871094 326.691406 266.433594 328.171875 266.433594 L 346.253906 266.433594 C 347.839844 266.433594 349.183594 265.871094 350.285156 264.75 C 351.40625 263.648438 351.964844 262.308594 351.964844 260.722656 L 351.964844 232.800781 C 351.964844 231.214844 351.40625 229.859375 350.285156 228.738281 C 349.183594 227.640625 347.839844 227.089844 346.253906 227.089844 L 319.292969 227.089844 C 316.121094 227.089844 313.421875 225.980469 311.203125 223.757812 C 308.980469 221.535156 307.871094 218.839844 307.871094 215.667969 L 307.871094 181.558594 C 307.871094 178.386719 308.980469 175.691406 311.203125 173.46875 C 313.421875 171.246094 316.121094 170.136719 319.292969 170.136719 L 355.296875 170.136719 C 358.46875 170.136719 361.164062 171.246094 363.382812 173.46875 C 365.605469 175.691406 366.714844 178.386719 366.714844 181.558594 L 366.714844 198.691406 L 351.964844 195.203125 L 351.964844 190.601562 C 351.964844 189.015625 351.40625 187.660156 350.285156 186.539062 C 349.183594 185.441406 347.839844 184.890625 346.253906 184.890625 L 328.171875 184.890625 C 326.691406 184.890625 325.394531 185.441406 324.273438 186.539062 C 323.171875 187.660156 322.621094 189.015625 322.621094 190.601562 L 322.621094 206.625 C 322.621094 208.210938 323.171875 209.554688 324.273438 210.652344 C 325.394531 211.773438 326.691406 212.335938 328.171875 212.335938 L 355.296875 212.335938 C 358.46875 212.335938 361.164062 213.445312 363.382812 215.667969 C 365.605469 217.886719 366.714844 220.585938 366.714844 223.757812 L 366.714844 269.761719 C 366.714844 272.9375 365.605469 275.632812 363.382812 277.855469 C 361.164062 280.074219 358.46875 281.183594 355.296875 281.183594 Z M 422.226562 281.183594 L 407.445312 281.183594 L 407.445312 184.890625 L 385.429688 184.890625 L 385.429688 170.136719 L 444.273438 170.136719 L 444.273438 184.890625 L 422.226562 184.890625 Z M 471.683594 281.34375 L 456.933594 281.34375 L 479.296875 170.296875 L 493.730469 170.296875 L 515.777344 281.34375 L 501.023438 281.34375 L 496.742188 260.5625 L 475.648438 260.5625 Z M 486.589844 206.464844 L 478.503906 245.96875 L 494.203125 245.96875 Z M 579.695312 281.183594 L 543.691406 281.183594 C 540.730469 281.183594 538.085938 280.074219 535.761719 277.855469 C 533.433594 275.632812 532.269531 272.9375 532.269531 269.761719 L 532.269531 181.558594 C 532.269531 178.492188 533.433594 175.816406 535.761719 173.53125 C 538.085938 171.269531 540.730469 170.136719 543.691406 170.136719 L 579.695312 170.136719 C 582.972656 170.136719 585.699219 171.269531 587.878906 173.53125 C 590.035156 175.816406 591.113281 178.492188 591.113281 181.558594 L 591.113281 202.183594 L 576.363281 205.515625 L 576.363281 190.601562 C 576.363281 189.121094 575.867188 187.800781 574.871094 186.636719 C 573.859375 185.472656 572.503906 184.890625 570.8125 184.890625 L 552.730469 184.890625 C 551.25 184.890625 549.929688 185.472656 548.765625 186.636719 C 547.601562 187.800781 547.019531 189.121094 547.019531 190.601562 L 547.019531 260.722656 C 547.019531 262.414062 547.601562 263.789062 548.765625 264.84375 C 549.929688 265.902344 551.25 266.433594 552.730469 266.433594 L 570.8125 266.433594 C 572.503906 266.433594 573.859375 265.902344 574.871094 264.84375 C 575.867188 263.789062 576.363281 262.414062 576.363281 260.722656 L 576.363281 249.140625 L 591.113281 245.648438 L 591.113281 269.761719 C 591.113281 272.9375 590.035156 275.632812 587.878906 277.855469 C 585.699219 280.074219 582.972656 281.183594 579.695312 281.183594 Z M 625.53125 281.183594 L 610.78125 281.183594 L 610.78125 170.136719 L 625.53125 170.136719 L 625.53125 244.222656 L 654.875 170.136719 L 669.625 170.136719 L 647.578125 225.660156 L 669.625 281.183594 L 654.875 281.183594 L 640.28125 244.222656 Z M 625.53125 281.183594 "/>
<g clip-path="url(#clip2)" clip-rule="nonzero">
<path style=" stroke:none;fill-rule:nonzero;fill:rgb(100%,100%,100%);fill-opacity:1;" d="M 749.246094 281.183594 L 701.664062 281.183594 L 701.664062 170.136719 L 749.246094 170.136719 C 752.3125 170.136719 754.957031 171.246094 757.175781 173.46875 C 759.398438 175.691406 760.507812 178.386719 760.507812 181.558594 L 760.507812 269.761719 C 760.507812 272.9375 759.398438 275.632812 757.175781 277.855469 C 754.957031 280.074219 752.3125 281.183594 749.246094 281.183594 Z M 716.414062 184.890625 L 716.414062 266.433594 L 740.207031 266.433594 C 741.6875 266.433594 743.007812 265.871094 744.171875 264.75 C 745.335938 263.648438 745.914062 262.308594 745.914062 260.722656 L 745.914062 190.601562 C 745.914062 189.015625 745.335938 187.660156 744.171875 186.539062 C 743.007812 185.441406 741.6875 184.890625 740.207031 184.890625 Z M 839.175781 281.183594 L 780.144531 281.183594 L 780.144531 170.136719 L 839.175781 170.136719 L 839.175781 184.730469 L 794.894531 184.730469 L 794.894531 212.335938 L 824.425781 212.335938 L 821.0625 227.089844 L 794.894531 227.089844 L 794.894531 266.433594 L 839.175781 266.433594 Z M 895.925781 281.183594 L 880.542969 281.183594 L 858.8125 170.136719 L 873.5625 170.136719 L 888.3125 245.175781 L 903.066406 170.136719 L 917.816406 170.136719 Z M 994.898438 281.183594 L 935.898438 281.183594 L 935.898438 170.136719 L 994.898438 170.136719 L 994.898438 184.730469 L 950.648438 184.730469 L 950.648438 212.335938 L 980.148438 212.335938 L 976.816406 227.089844 L 950.648438 227.089844 L 950.648438 266.433594 L 994.898438 266.433594 Z M 1067.222656 281.183594 L 1014.566406 281.183594 L 1014.566406 170.136719 L 1029.316406 170.136719 L 1029.316406 266.433594 L 1067.222656 266.433594 Z M 1133.363281 281.183594 L 1097.359375 281.183594 C 1094.398438 281.183594 1091.808594 280.074219 1089.589844 277.855469 C 1087.367188 275.632812 1086.257812 272.882812 1086.257812 269.605469 L 1086.257812 181.71875 C 1086.257812 178.441406 1087.367188 175.691406 1089.589844 173.46875 C 1091.808594 171.246094 1094.398438 170.136719 1097.359375 170.136719 L 1133.363281 170.136719 C 1136.746094 170.136719 1139.519531 171.246094 1141.675781 173.46875 C 1143.851562 175.691406 1144.941406 178.441406 1144.941406 181.71875 L 1144.941406 269.605469 C 1144.941406 272.882812 1143.851562 275.632812 1141.675781 277.855469 C 1139.519531 280.074219 1136.746094 281.183594 1133.363281 281.183594 Z M 1106.402344 266.589844 L 1124.324219 266.589844 C 1126.121094 266.589844 1127.570312 266.007812 1128.667969 264.84375 C 1129.789062 263.683594 1130.351562 262.253906 1130.351562 260.5625 L 1130.351562 190.761719 C 1130.351562 188.960938 1129.789062 187.503906 1128.667969 186.382812 C 1127.570312 185.28125 1126.121094 184.730469 1124.324219 184.730469 L 1106.402344 184.730469 C 1104.921875 184.730469 1103.621094 185.28125 1102.5 186.382812 C 1101.398438 187.503906 1100.847656 188.960938 1100.847656 190.761719 L 1100.847656 260.5625 C 1100.847656 262.253906 1101.398438 263.683594 1102.5 264.84375 C 1103.621094 266.007812 1104.921875 266.589844 1106.402344 266.589844 Z M 1179.328125 281.183594 L 1164.578125 281.183594 L 1164.578125 170.136719 L 1212.160156 170.136719 C 1215.226562 170.136719 1217.902344 171.246094 1220.1875 173.46875 C 1222.449219 175.691406 1223.582031 178.386719 1223.582031 181.558594 L 1223.582031 215.667969 C 1223.582031 218.839844 1222.449219 221.535156 1220.1875 223.757812 C 1217.902344 225.980469 1215.226562 227.089844 1212.160156 227.089844 L 1179.328125 227.089844 Z M 1179.328125 184.890625 L 1179.328125 212.335938 L 1203.121094 212.335938 C 1204.707031 212.335938 1206.058594 211.773438 1207.179688 210.652344 C 1208.28125 209.554688 1208.828125 208.210938 1208.828125 206.625 L 1208.828125 190.441406 C 1208.828125 188.960938 1208.28125 187.660156 1207.179688 186.539062 C 1206.058594 185.441406 1204.707031 184.890625 1203.121094 184.890625 Z M 1302.25 281.183594 L 1243.246094 281.183594 L 1243.246094 170.136719 L 1302.25 170.136719 L 1302.25 184.730469 L 1258 184.730469 L 1258 212.335938 L 1287.5 212.335938 L 1284.167969 227.089844 L 1258 227.089844 L 1258 266.433594 L 1302.25 266.433594 Z M 1336.351562 281.183594 L 1321.601562 281.183594 L 1321.601562 170.136719 L 1369.183594 170.136719 C 1372.25 170.136719 1374.890625 171.246094 1377.113281 173.46875 C 1379.332031 175.691406 1380.445312 178.386719 1380.445312 181.558594 L 1380.445312 215.667969 C 1380.445312 218.839844 1379.332031 221.535156 1377.113281 223.757812 C 1374.890625 225.980469 1372.25 227.089844 1369.183594 227.089844 L 1365.851562 227.089844 L 1380.445312 281.183594 L 1365.851562 281.183594 L 1351.101562 227.089844 L 1336.351562 227.089844 Z M 1336.351562 184.890625 L 1336.351562 212.335938 L 1360.140625 212.335938 C 1361.621094 212.335938 1362.945312 211.773438 1364.105469 210.652344 C 1365.269531 209.554688 1365.851562 208.210938 1365.851562 206.625 L 1365.851562 190.601562 C 1365.851562 189.015625 1365.269531 187.660156 1364.105469 186.539062 C 1362.945312 185.441406 1361.621094 184.890625 1360.140625 184.890625 Z M 1336.351562 184.890625 "/>
</g>
<g clip-path="url(#clip3)" clip-rule="nonzero">
<path style=" stroke:none;fill-rule:nonzero;fill:rgb(100%,100%,100%);fill-opacity:1;" d="M 1120.652344 388.714844 L 1114.191406 388.714844 L 1114.191406 352.652344 L 1078.890625 352.652344 L 1078.890625 388.714844 L 1072.433594 388.714844 L 1072.433594 314.976562 L 1078.890625 314.976562 L 1078.890625 347.160156 L 1114.191406 347.160156 L 1114.191406 314.976562 L 1120.652344 314.976562 Z M 1143.683594 379.671875 C 1145.1875 379.671875 1146.421875 380.152344 1147.382812 381.113281 C 1148.359375 382.089844 1148.847656 383.296875 1148.847656 384.730469 C 1148.847656 386.238281 1148.359375 387.472656 1147.382812 388.433594 C 1146.421875 389.410156 1145.1875 389.898438 1143.683594 389.898438 C 1142.246094 389.898438 1141.027344 389.394531 1140.023438 388.390625 C 1139.019531 387.386719 1138.515625 386.164062 1138.515625 384.730469 C 1138.515625 383.296875 1139.019531 382.089844 1140.023438 381.113281 C 1141.027344 380.152344 1142.246094 379.671875 1143.683594 379.671875 Z M 1185.546875 331.230469 C 1188.777344 331.230469 1191.644531 331.675781 1194.15625 332.566406 C 1196.667969 333.46875 1199.109375 334.925781 1201.476562 336.9375 L 1198.355469 341.027344 C 1196.488281 339.519531 1194.566406 338.40625 1192.585938 337.6875 C 1190.621094 336.972656 1188.382812 336.613281 1185.871094 336.613281 C 1180.5625 336.613281 1176.328125 338.671875 1173.171875 342.792969 C 1170.015625 346.925781 1168.433594 352.9375 1168.433594 360.832031 C 1168.433594 368.65625 1169.992188 374.539062 1173.105469 378.488281 C 1176.234375 382.433594 1180.453125 384.40625 1185.761719 384.40625 C 1188.273438 384.40625 1190.546875 384.011719 1192.585938 383.222656 C 1194.636719 382.433594 1196.703125 381.25 1198.785156 379.671875 L 1201.800781 383.867188 C 1197.0625 387.886719 1191.683594 389.898438 1185.65625 389.898438 C 1180.847656 389.898438 1176.652344 388.75 1173.0625 386.453125 C 1169.476562 384.15625 1166.691406 380.832031 1164.710938 376.484375 C 1162.746094 372.148438 1161.761719 366.96875 1161.761719 360.941406 C 1161.761719 354.984375 1162.746094 349.761719 1164.710938 345.265625 C 1166.691406 340.789062 1169.476562 337.332031 1173.0625 334.890625 C 1176.652344 332.449219 1180.8125 331.230469 1185.546875 331.230469 Z M 1251.714844 376.226562 C 1251.714844 379.167969 1252.09375 381.285156 1252.855469 382.578125 C 1253.601562 383.867188 1254.800781 384.839844 1256.449219 385.484375 L 1255.050781 389.898438 C 1252.46875 389.394531 1250.480469 388.425781 1249.089844 386.992188 C 1247.683594 385.554688 1246.765625 383.367188 1246.332031 380.425781 C 1242.460938 386.738281 1236.613281 389.898438 1228.789062 389.898438 C 1223.410156 389.898438 1219.164062 388.367188 1216.046875 385.3125 C 1212.921875 382.269531 1211.355469 378.199219 1211.355469 373.105469 C 1211.355469 367.292969 1213.421875 362.804688 1217.554688 359.648438 C 1221.671875 356.492188 1227.390625 354.914062 1234.710938 354.914062 L 1245.472656 354.914062 L 1245.472656 349.421875 C 1245.472656 344.902344 1244.46875 341.613281 1242.460938 339.5625 C 1240.449219 337.523438 1237.113281 336.503906 1232.449219 336.503906 C 1228.144531 336.503906 1223.050781 337.582031 1217.167969 339.734375 L 1215.554688 335 C 1221.867188 332.488281 1227.785156 331.230469 1233.3125 331.230469 C 1245.582031 331.230469 1251.714844 337.1875 1251.714844 349.101562 Z M 1229.867188 384.839844 C 1236.613281 384.839844 1241.8125 381.535156 1245.472656 374.933594 L 1245.472656 359.433594 L 1235.679688 359.433594 C 1229.9375 359.433594 1225.5625 360.546875 1222.546875 362.769531 C 1219.535156 364.996094 1218.027344 368.332031 1218.027344 372.78125 C 1218.027344 376.65625 1219.070312 379.636719 1221.148438 381.714844 C 1223.230469 383.796875 1226.136719 384.839844 1229.867188 384.839844 Z M 1299.285156 331.230469 C 1304.378906 331.230469 1308.273438 332.738281 1310.972656 335.75 C 1313.65625 338.765625 1314.996094 343 1314.996094 348.453125 L 1314.996094 388.714844 L 1308.753906 388.714844 L 1308.753906 349.316406 C 1308.753906 344.792969 1307.859375 341.492188 1306.066406 339.410156 C 1304.269531 337.332031 1301.617188 336.289062 1298.101562 336.289062 C 1294.511719 336.289062 1291.34375 337.273438 1288.585938 339.238281 C 1285.816406 341.21875 1283.175781 344.113281 1280.664062 347.914062 L 1280.664062 388.714844 L 1274.421875 388.714844 L 1274.421875 332.414062 L 1279.804688 332.414062 L 1280.449219 341.996094 C 1282.746094 338.621094 1285.472656 335.980469 1288.628906 334.074219 C 1291.785156 332.179688 1295.339844 331.230469 1299.285156 331.230469 Z M 1356.648438 331.230469 C 1364.109375 331.230469 1369.9375 333.792969 1374.125 338.917969 C 1378.332031 344.054688 1380.433594 351.214844 1380.433594 360.402344 C 1380.433594 369.515625 1378.292969 376.707031 1374.019531 381.972656 C 1369.757812 387.257812 1363.929688 389.898438 1356.539062 389.898438 C 1349.078125 389.898438 1343.246094 387.292969 1339.039062 382.082031 C 1334.851562 376.886719 1332.753906 369.730469 1332.753906 360.617188 C 1332.753906 354.660156 1333.722656 349.457031 1335.660156 345.007812 C 1337.597656 340.558594 1340.359375 337.152344 1343.949219 334.78125 C 1347.535156 332.414062 1351.769531 331.230469 1356.648438 331.230469 Z M 1356.648438 336.503906 C 1351.195312 336.503906 1346.960938 338.550781 1343.949219 342.640625 C 1340.933594 346.730469 1339.429688 352.722656 1339.429688 360.617188 C 1339.429688 368.441406 1340.914062 374.394531 1343.882812 378.488281 C 1346.867188 382.578125 1351.085938 384.621094 1356.539062 384.621094 C 1361.992188 384.621094 1366.242188 382.578125 1369.28125 378.488281 C 1372.339844 374.394531 1373.867188 368.367188 1373.867188 360.402344 C 1373.867188 352.582031 1372.375 346.636719 1369.390625 342.578125 C 1366.421875 338.527344 1362.171875 336.503906 1356.648438 336.503906 Z M 1356.648438 336.503906 "/>
</g>
<g clip-path="url(#clip4)" clip-rule="nonzero">
<path style="fill-rule:nonzero;fill:rgb(100%,100%,100%);fill-opacity:1;stroke-width:1;stroke-linecap:butt;stroke-linejoin:miter;stroke:rgb(100%,100%,100%);stroke-opacity:1;stroke-miterlimit:4;" d="M 0.0000151616 79.553373 C 0.0000151616 35.61722 35.616468 -0.000000000000000732 79.553507 -0.000000000000000732 C 123.489426 -0.000000000000000732 159.105878 35.61722 159.105878 79.553373 C 159.105878 123.489526 123.489426 159.105626 79.553507 159.105626 C 35.616468 159.105626 0.0000151616 123.489526 0.0000151616 79.553373 Z M 79.553507 155.972448 C 121.757884 155.972448 155.972079 121.758328 155.972079 79.553373 C 155.972079 37.348418 121.757884 3.134297 79.553507 3.134297 C 37.34801 3.134297 3.133815 37.348418 3.133815 79.553373 C 3.133815 121.758328 37.34801 155.972448 79.553507 155.972448 Z M 79.553507 155.972448 " transform="matrix(3.487679,0,0,3.488371,1437.671822,0.000000000000002554)"/>
</g>
<g clip-path="url(#clip5)" clip-rule="nonzero">
<path style=" stroke:none;fill-rule:nonzero;fill:rgb(100%,100%,100%);fill-opacity:1;" d="M 1767.226562 210.011719 L 1767.226562 235.78125 L 1852.632812 277.511719 L 1767.226562 319.292969 L 1767.226562 345.0625 L 1882.789062 288.148438 L 1882.789062 266.5625 Z M 1767.226562 210.011719 "/>
</g>
<g clip-path="url(#clip6)" clip-rule="nonzero">
<path style=" stroke:none;fill-rule:nonzero;fill:rgb(100%,100%,100%);fill-opacity:1;" d="M 1547.464844 288.148438 L 1663.027344 345.0625 L 1663.027344 319.292969 L 1577.621094 277.511719 L 1663.027344 235.78125 L 1663.027344 210.011719 L 1547.464844 266.5625 Z M 1547.464844 288.148438 "/>
</g>
<g clip-path="url(#clip7)" clip-rule="nonzero">
<path style=" stroke:none;fill-rule:nonzero;fill:rgb(100%,100%,100%);fill-opacity:1;" d="M 1673.972656 367.839844 L 1699.429688 367.839844 L 1756.28125 187.183594 L 1731.03125 187.183594 Z M 1673.972656 367.839844 "/>
</g>
</g>
</svg>
