<?xml version="1.0" encoding="UTF-8"?>
<svg xmlns="http://www.w3.org/2000/svg" xmlns:xlink="http://www.w3.org/1999/xlink" width="2064px" height="573px" viewBox="0 0 2064 573" version="1.1">
<defs>
<clipPath id="clip1">
  <path d="M 1.03125 175.832031 L 286 175.832031 L 286 291 L 1.03125 291 Z M 1.03125 175.832031 "/>
</clipPath>
<clipPath id="clip2">
  <path d="M 725 175.832031 L 1427.46875 175.832031 L 1427.46875 291 L 725 291 Z M 725 175.832031 "/>
</clipPath>
<clipPath id="clip3">
  <path d="M 1108.960938 325.777344 L 1427.46875 325.777344 L 1427.46875 403.269531 L 1108.960938 403.269531 Z M 1108.960938 325.777344 "/>
</clipPath>
<clipPath id="clip4">
  <path d="M 1486.652344 0.527344 L 2060.464844 0.527344 L 2060.464844 573 L 1486.652344 573 Z M 1486.652344 0.527344 "/>
</clipPath>
<clipPath id="clip5">
  <path d="M 1827.199219 217.203125 L 1946.929688 217.203125 L 1946.929688 357 L 1827.199219 357 Z M 1827.199219 217.203125 "/>
</clipPath>
<clipPath id="clip6">
  <path d="M 1600.183594 217.203125 L 1720 217.203125 L 1720 357 L 1600.183594 357 Z M 1600.183594 217.203125 "/>
</clipPath>
<clipPath id="clip7">
  <path d="M 1731 193.601562 L 1816.859375 193.601562 L 1816.859375 380.457031 L 1731 380.457031 Z M 1731 193.601562 "/>
</clipPath>
</defs>
<g id="surface1">
<g clip-path="url(#clip1)" clip-rule="nonzero">
<path style=" stroke:none;fill-rule:nonzero;fill:rgb(100%,100%,100%);fill-opacity:1;" d="M 16.28125 290.828125 L 1.03125 290.828125 L 1.03125 175.972656 L 62.042969 175.972656 L 62.042969 191.230469 L 16.28125 191.230469 L 16.28125 219.617188 L 46.792969 219.617188 L 43.347656 234.878906 L 16.28125 234.878906 Z M 124.859375 290.828125 L 87.628906 290.828125 C 84.347656 290.828125 81.5625 289.679688 79.265625 287.386719 C 76.96875 285.085938 75.816406 282.296875 75.816406 279.011719 L 75.816406 175.972656 L 91.074219 175.972656 L 91.074219 269.824219 C 91.074219 271.355469 91.640625 272.691406 92.78125 273.828125 C 93.9375 274.988281 95.335938 275.570312 96.976562 275.570312 L 115.511719 275.570312 C 117.152344 275.570312 118.539062 274.988281 119.675781 273.828125 C 120.835938 272.691406 121.414062 271.355469 121.414062 269.824219 L 121.414062 175.972656 L 136.667969 175.972656 L 136.667969 279.011719 C 136.667969 282.296875 135.519531 285.085938 133.226562 287.386719 C 130.925781 289.679688 128.140625 290.828125 124.859375 290.828125 Z M 211.457031 290.828125 L 157.003906 290.828125 L 157.003906 175.972656 L 172.257812 175.972656 L 172.257812 275.570312 L 211.457031 275.570312 Z M 285.554688 290.828125 L 231.105469 290.828125 L 231.105469 175.972656 L 246.359375 175.972656 L 246.359375 275.570312 L 285.554688 275.570312 Z M 285.554688 290.828125 "/>
</g>
<path style=" stroke:none;fill-rule:nonzero;fill:rgb(100%,100%,100%);fill-opacity:1;" d="M 367.402344 290.828125 L 330.171875 290.828125 C 326.890625 290.828125 324.097656 289.679688 321.804688 287.386719 C 319.507812 285.085938 318.359375 282.296875 318.359375 279.011719 L 318.359375 253.585938 L 333.613281 257.027344 L 333.613281 269.664062 C 333.613281 271.304688 334.183594 272.691406 335.320312 273.828125 C 336.480469 274.988281 337.820312 275.570312 339.351562 275.570312 L 358.050781 275.570312 C 359.691406 275.570312 361.078125 274.988281 362.21875 273.828125 C 363.378906 272.691406 363.957031 271.304688 363.957031 269.664062 L 363.957031 240.785156 C 363.957031 239.144531 363.378906 237.742188 362.21875 236.582031 C 361.078125 235.449219 359.691406 234.878906 358.050781 234.878906 L 330.171875 234.878906 C 326.890625 234.878906 324.097656 233.730469 321.804688 231.433594 C 319.507812 229.132812 318.359375 226.34375 318.359375 223.066406 L 318.359375 187.785156 C 318.359375 184.503906 319.507812 181.71875 321.804688 179.417969 C 324.097656 177.121094 326.890625 175.972656 330.171875 175.972656 L 367.402344 175.972656 C 370.679688 175.972656 373.46875 177.121094 375.761719 179.417969 C 378.0625 181.71875 379.207031 184.503906 379.207031 187.785156 L 379.207031 205.503906 L 363.957031 201.898438 L 363.957031 197.136719 C 363.957031 195.5 363.378906 194.097656 362.21875 192.9375 C 361.078125 191.800781 359.691406 191.230469 358.050781 191.230469 L 339.351562 191.230469 C 337.820312 191.230469 336.480469 191.800781 335.320312 192.9375 C 334.183594 194.097656 333.613281 195.5 333.613281 197.136719 L 333.613281 213.710938 C 333.613281 215.351562 334.183594 216.742188 335.320312 217.875 C 336.480469 219.035156 337.820312 219.617188 339.351562 219.617188 L 367.402344 219.617188 C 370.679688 219.617188 373.46875 220.765625 375.761719 223.066406 C 378.0625 225.359375 379.207031 228.152344 379.207031 231.433594 L 379.207031 279.011719 C 379.207031 282.296875 378.0625 285.085938 375.761719 287.386719 C 373.46875 289.679688 370.679688 290.828125 367.402344 290.828125 Z M 436.609375 290.828125 L 421.328125 290.828125 L 421.328125 191.230469 L 398.5625 191.230469 L 398.5625 175.972656 L 459.410156 175.972656 L 459.410156 191.230469 L 436.609375 191.230469 Z M 487.753906 290.992188 L 472.5 290.992188 L 495.625 176.136719 L 510.550781 176.136719 L 533.347656 290.992188 L 518.09375 290.992188 L 513.664062 269.5 L 491.851562 269.5 Z M 503.167969 213.546875 L 494.804688 254.40625 L 511.039062 254.40625 Z M 599.445312 290.828125 L 562.214844 290.828125 C 559.152344 290.828125 556.417969 289.679688 554.015625 287.386719 C 551.605469 285.085938 550.402344 282.296875 550.402344 279.011719 L 550.402344 187.785156 C 550.402344 184.613281 551.605469 181.847656 554.015625 179.484375 C 556.417969 177.144531 559.152344 175.972656 562.214844 175.972656 L 599.445312 175.972656 C 602.832031 175.972656 605.652344 177.144531 607.90625 179.484375 C 610.136719 181.847656 611.25 184.613281 611.25 187.785156 L 611.25 209.117188 L 596 212.5625 L 596 197.136719 C 596 195.605469 595.484375 194.242188 594.457031 193.039062 C 593.410156 191.832031 592.007812 191.230469 590.257812 191.230469 L 571.5625 191.230469 C 570.03125 191.230469 568.664062 191.832031 567.460938 193.039062 C 566.257812 194.242188 565.65625 195.605469 565.65625 197.136719 L 565.65625 269.664062 C 565.65625 271.414062 566.257812 272.835938 567.460938 273.925781 C 568.664062 275.023438 570.03125 275.570312 571.5625 275.570312 L 590.257812 275.570312 C 592.007812 275.570312 593.410156 275.023438 594.457031 273.925781 C 595.484375 272.835938 596 271.414062 596 269.664062 L 596 257.683594 L 611.25 254.074219 L 611.25 279.011719 C 611.25 282.296875 610.136719 285.085938 607.90625 287.386719 C 605.652344 289.679688 602.832031 290.828125 599.445312 290.828125 Z M 646.84375 290.828125 L 631.589844 290.828125 L 631.589844 175.972656 L 646.84375 175.972656 L 646.84375 252.597656 L 677.183594 175.972656 L 692.4375 175.972656 L 669.640625 233.398438 L 692.4375 290.828125 L 677.183594 290.828125 L 662.09375 252.597656 Z M 646.84375 290.828125 "/>
<g clip-path="url(#clip2)" clip-rule="nonzero">
<path style=" stroke:none;fill-rule:nonzero;fill:rgb(100%,100%,100%);fill-opacity:1;" d="M 774.773438 290.828125 L 725.570312 290.828125 L 725.570312 175.972656 L 774.773438 175.972656 C 777.941406 175.972656 780.675781 177.121094 782.972656 179.417969 C 785.269531 181.71875 786.417969 184.503906 786.417969 187.785156 L 786.417969 279.011719 C 786.417969 282.296875 785.269531 285.085938 782.972656 287.386719 C 780.675781 289.679688 777.941406 290.828125 774.773438 290.828125 Z M 740.820312 191.230469 L 740.820312 275.570312 L 765.425781 275.570312 C 766.957031 275.570312 768.320312 274.988281 769.523438 273.828125 C 770.726562 272.691406 771.324219 271.304688 771.324219 269.664062 L 771.324219 197.136719 C 771.324219 195.5 770.726562 194.097656 769.523438 192.9375 C 768.320312 191.800781 766.957031 191.230469 765.425781 191.230469 Z M 867.765625 290.828125 L 806.722656 290.828125 L 806.722656 175.972656 L 867.765625 175.972656 L 867.765625 191.066406 L 821.976562 191.066406 L 821.976562 219.617188 L 852.511719 219.617188 L 849.035156 234.878906 L 821.976562 234.878906 L 821.976562 275.570312 L 867.765625 275.570312 Z M 926.449219 290.828125 L 910.542969 290.828125 L 888.070312 175.972656 L 903.324219 175.972656 L 918.574219 253.585938 L 933.832031 175.972656 L 949.085938 175.972656 Z M 1028.792969 290.828125 L 967.78125 290.828125 L 967.78125 175.972656 L 1028.792969 175.972656 L 1028.792969 191.066406 L 983.035156 191.066406 L 983.035156 219.617188 L 1013.539062 219.617188 L 1010.09375 234.878906 L 983.035156 234.878906 L 983.035156 275.570312 L 1028.792969 275.570312 Z M 1103.582031 290.828125 L 1049.128906 290.828125 L 1049.128906 175.972656 L 1064.382812 175.972656 L 1064.382812 275.570312 L 1103.582031 275.570312 Z M 1171.976562 290.828125 L 1134.746094 290.828125 C 1131.683594 290.828125 1129.003906 289.679688 1126.710938 287.386719 C 1124.410156 285.085938 1123.265625 282.242188 1123.265625 278.851562 L 1123.265625 187.949219 C 1123.265625 184.5625 1124.410156 181.71875 1126.710938 179.417969 C 1129.003906 177.121094 1131.683594 175.972656 1134.746094 175.972656 L 1171.976562 175.972656 C 1175.472656 175.972656 1178.339844 177.121094 1180.570312 179.417969 C 1182.820312 181.71875 1183.949219 184.5625 1183.949219 187.949219 L 1183.949219 278.851562 C 1183.949219 282.242188 1182.820312 285.085938 1180.570312 287.386719 C 1178.339844 289.679688 1175.472656 290.828125 1171.976562 290.828125 Z M 1144.09375 275.734375 L 1162.628906 275.734375 C 1164.484375 275.734375 1165.984375 275.128906 1167.121094 273.925781 C 1168.277344 272.726562 1168.859375 271.25 1168.859375 269.5 L 1168.859375 197.304688 C 1168.859375 195.441406 1168.277344 193.933594 1167.121094 192.773438 C 1165.984375 191.636719 1164.484375 191.066406 1162.628906 191.066406 L 1144.09375 191.066406 C 1142.566406 191.066406 1141.21875 191.636719 1140.058594 192.773438 C 1138.921875 193.933594 1138.351562 195.441406 1138.351562 197.304688 L 1138.351562 269.5 C 1138.351562 271.25 1138.921875 272.726562 1140.058594 273.925781 C 1141.21875 275.128906 1142.566406 275.734375 1144.09375 275.734375 Z M 1219.503906 290.828125 L 1204.253906 290.828125 L 1204.253906 175.972656 L 1253.457031 175.972656 C 1256.628906 175.972656 1259.394531 177.121094 1261.757812 179.417969 C 1264.097656 181.71875 1265.265625 184.503906 1265.265625 187.785156 L 1265.265625 223.066406 C 1265.265625 226.34375 1264.097656 229.132812 1261.757812 231.433594 C 1259.394531 233.730469 1256.628906 234.878906 1253.457031 234.878906 L 1219.503906 234.878906 Z M 1219.503906 191.230469 L 1219.503906 219.617188 L 1244.109375 219.617188 C 1245.75 219.617188 1247.148438 219.035156 1248.304688 217.875 C 1249.445312 216.742188 1250.011719 215.351562 1250.011719 213.710938 L 1250.011719 196.972656 C 1250.011719 195.441406 1249.445312 194.097656 1248.304688 192.9375 C 1247.148438 191.800781 1245.75 191.230469 1244.109375 191.230469 Z M 1346.613281 290.828125 L 1285.601562 290.828125 L 1285.601562 175.972656 L 1346.613281 175.972656 L 1346.613281 191.066406 L 1300.859375 191.066406 L 1300.859375 219.617188 L 1331.363281 219.617188 L 1327.917969 234.878906 L 1300.859375 234.878906 L 1300.859375 275.570312 L 1346.613281 275.570312 Z M 1381.878906 290.828125 L 1366.625 290.828125 L 1366.625 175.972656 L 1415.828125 175.972656 C 1419 175.972656 1421.730469 177.121094 1424.027344 179.417969 C 1426.324219 181.71875 1427.472656 184.503906 1427.472656 187.785156 L 1427.472656 223.066406 C 1427.472656 226.34375 1426.324219 229.132812 1424.027344 231.433594 C 1421.730469 233.730469 1419 234.878906 1415.828125 234.878906 L 1412.382812 234.878906 L 1427.472656 290.828125 L 1412.382812 290.828125 L 1397.132812 234.878906 L 1381.878906 234.878906 Z M 1381.878906 191.230469 L 1381.878906 219.617188 L 1406.476562 219.617188 C 1408.007812 219.617188 1409.378906 219.035156 1410.578125 217.875 C 1411.78125 216.742188 1412.382812 215.351562 1412.382812 213.710938 L 1412.382812 197.136719 C 1412.382812 195.5 1411.78125 194.097656 1410.578125 192.9375 C 1409.378906 191.800781 1408.007812 191.230469 1406.476562 191.230469 Z M 1381.878906 191.230469 "/>
</g>
<g clip-path="url(#clip3)" clip-rule="nonzero">
<path style=" stroke:none;fill-rule:nonzero;fill:rgb(100%,100%,100%);fill-opacity:1;" d="M 1158.832031 402.046875 L 1152.148438 402.046875 L 1152.148438 364.746094 L 1115.644531 364.746094 L 1115.644531 402.046875 L 1108.96875 402.046875 L 1108.96875 325.777344 L 1115.644531 325.777344 L 1115.644531 359.066406 L 1152.148438 359.066406 L 1152.148438 325.777344 L 1158.832031 325.777344 Z M 1182.648438 392.691406 C 1184.203125 392.691406 1185.476562 393.191406 1186.472656 394.183594 C 1187.480469 395.195312 1187.988281 396.441406 1187.988281 397.925781 C 1187.988281 399.484375 1187.480469 400.761719 1186.472656 401.753906 C 1185.476562 402.765625 1184.203125 403.269531 1182.648438 403.269531 C 1181.160156 403.269531 1179.898438 402.75 1178.863281 401.710938 C 1177.824219 400.671875 1177.300781 399.40625 1177.300781 397.925781 C 1177.300781 396.441406 1177.824219 395.195312 1178.863281 394.183594 C 1179.898438 393.191406 1181.160156 392.691406 1182.648438 392.691406 Z M 1225.9375 342.589844 C 1229.277344 342.589844 1232.242188 343.050781 1234.839844 343.972656 C 1237.4375 344.90625 1239.960938 346.414062 1242.410156 348.492188 L 1239.179688 352.722656 C 1237.25 351.164062 1235.261719 350.011719 1233.214844 349.269531 C 1231.183594 348.53125 1228.867188 348.15625 1226.273438 348.15625 C 1220.78125 348.15625 1216.402344 350.285156 1213.140625 354.550781 C 1209.875 358.824219 1208.238281 365.042969 1208.238281 373.207031 C 1208.238281 381.300781 1209.851562 387.382812 1213.070312 391.46875 C 1216.304688 395.550781 1220.667969 397.589844 1226.160156 397.589844 C 1228.753906 397.589844 1231.105469 397.183594 1233.214844 396.367188 C 1235.335938 395.550781 1237.472656 394.324219 1239.625 392.691406 L 1242.742188 397.03125 C 1237.84375 401.191406 1232.28125 403.269531 1226.050781 403.269531 C 1221.078125 403.269531 1216.738281 402.082031 1213.027344 399.707031 C 1209.320312 397.332031 1206.4375 393.894531 1204.390625 389.394531 C 1202.359375 384.910156 1201.339844 379.554688 1201.339844 373.320312 C 1201.339844 367.160156 1202.359375 361.757812 1204.390625 357.105469 C 1206.4375 352.476562 1209.320312 348.902344 1213.027344 346.375 C 1216.738281 343.851562 1221.039062 342.589844 1225.9375 342.589844 Z M 1294.359375 389.128906 C 1294.359375 392.171875 1294.75 394.363281 1295.539062 395.699219 C 1296.308594 397.03125 1297.550781 398.039062 1299.253906 398.703125 L 1297.808594 403.269531 C 1295.136719 402.75 1293.082031 401.746094 1291.644531 400.265625 C 1290.191406 398.777344 1289.242188 396.515625 1288.792969 393.472656 C 1284.789062 400 1278.742188 403.269531 1270.652344 403.269531 C 1265.089844 403.269531 1260.699219 401.6875 1257.476562 398.527344 C 1254.242188 395.378906 1252.625 391.171875 1252.625 385.902344 C 1252.625 379.890625 1254.761719 375.246094 1259.035156 371.984375 C 1263.292969 368.71875 1269.207031 367.085938 1276.773438 367.085938 L 1287.902344 367.085938 L 1287.902344 361.40625 C 1287.902344 356.730469 1286.867188 353.328125 1284.789062 351.207031 C 1282.710938 349.097656 1279.257812 348.042969 1274.4375 348.042969 C 1269.984375 348.042969 1264.71875 349.160156 1258.632812 351.386719 L 1256.964844 346.488281 C 1263.492188 343.890625 1269.613281 342.589844 1275.328125 342.589844 C 1288.015625 342.589844 1294.359375 348.75 1294.359375 361.074219 Z M 1271.765625 398.039062 C 1278.742188 398.039062 1284.117188 394.621094 1287.902344 387.792969 L 1287.902344 371.761719 L 1277.777344 371.761719 C 1271.839844 371.761719 1267.316406 372.914062 1264.195312 375.210938 C 1261.082031 377.515625 1259.523438 380.964844 1259.523438 385.566406 C 1259.523438 389.574219 1260.601562 392.65625 1262.75 394.804688 C 1264.902344 396.960938 1267.910156 398.039062 1271.765625 398.039062 Z M 1343.550781 342.589844 C 1348.816406 342.589844 1352.84375 344.148438 1355.636719 347.265625 C 1358.410156 350.382812 1359.796875 354.761719 1359.796875 360.402344 L 1359.796875 402.046875 L 1353.339844 402.046875 L 1353.339844 361.296875 C 1353.339844 356.617188 1352.414062 353.203125 1350.5625 351.050781 C 1348.703125 348.902344 1345.960938 347.824219 1342.324219 347.824219 C 1338.613281 347.824219 1335.335938 348.839844 1332.484375 350.871094 C 1329.621094 352.921875 1326.890625 355.914062 1324.292969 359.847656 L 1324.292969 402.046875 L 1317.839844 402.046875 L 1317.839844 343.816406 L 1323.40625 343.816406 L 1324.070312 353.726562 C 1326.445312 350.234375 1329.265625 347.503906 1332.53125 345.53125 C 1335.792969 343.570312 1339.46875 342.589844 1343.550781 342.589844 Z M 1402.867188 342.589844 C 1410.582031 342.589844 1416.609375 345.242188 1420.9375 350.542969 C 1425.289062 355.855469 1427.460938 363.261719 1427.460938 372.761719 C 1427.460938 382.1875 1425.25 389.625 1420.828125 395.074219 C 1416.421875 400.539062 1410.394531 403.269531 1402.753906 403.269531 C 1395.039062 403.269531 1389.007812 400.574219 1384.65625 395.1875 C 1380.328125 389.8125 1378.160156 382.410156 1378.160156 372.984375 C 1378.160156 366.824219 1379.160156 361.441406 1381.164062 356.839844 C 1383.167969 352.238281 1386.023438 348.714844 1389.734375 346.261719 C 1393.441406 343.816406 1397.820312 342.589844 1402.867188 342.589844 Z M 1402.867188 348.042969 C 1397.226562 348.042969 1392.847656 350.160156 1389.734375 354.390625 C 1386.617188 358.621094 1385.0625 364.820312 1385.0625 372.984375 C 1385.0625 381.078125 1386.597656 387.234375 1389.667969 391.46875 C 1392.753906 395.699219 1397.113281 397.8125 1402.753906 397.8125 C 1408.394531 397.8125 1412.789062 395.699219 1415.929688 391.46875 C 1419.09375 387.234375 1420.671875 381 1420.671875 372.761719 C 1420.671875 364.675781 1419.128906 358.523438 1416.042969 354.328125 C 1412.972656 350.136719 1408.578125 348.042969 1402.867188 348.042969 Z M 1402.867188 348.042969 "/>
</g>
<g clip-path="url(#clip4)" clip-rule="nonzero">
<path style="fill-rule:nonzero;fill:rgb(100%,100%,100%);fill-opacity:1;stroke-width:1;stroke-linecap:butt;stroke-linejoin:miter;stroke:rgb(100%,100%,100%);stroke-opacity:1;stroke-miterlimit:4;" d="M 0.000477528 79.552851 C 0.000477528 35.617383 35.616532 -0.000000000000000732 79.553072 -0.000000000000000732 C 123.489612 -0.000000000000000732 159.105666 35.617383 159.105666 79.552851 C 159.105666 123.489401 123.489612 159.105702 79.553072 159.105702 C 35.616532 159.105702 0.000477528 123.489401 0.000477528 79.552851 Z M 79.553072 155.972481 C 121.757712 155.972481 155.972216 121.758226 155.972216 79.552851 C 155.972216 37.348558 121.757712 3.134304 79.553072 3.134304 C 37.348432 3.134304 3.133928 37.348558 3.133928 79.552851 C 3.133928 121.758226 37.348432 155.972481 79.553072 155.972481 Z M 79.553072 155.972481 " transform="matrix(3.606498,0,0,3.608008,1486.650622,0.000000000000002642)"/>
</g>
<g clip-path="url(#clip5)" clip-rule="nonzero">
<path style=" stroke:none;fill-rule:nonzero;fill:rgb(100%,100%,100%);fill-opacity:1;" d="M 1827.433594 217.214844 L 1827.433594 243.867188 L 1915.75 287.027344 L 1827.433594 330.242188 L 1827.433594 356.898438 L 1946.933594 298.03125 L 1946.933594 275.703125 Z M 1827.433594 217.214844 "/>
</g>
<g clip-path="url(#clip6)" clip-rule="nonzero">
<path style=" stroke:none;fill-rule:nonzero;fill:rgb(100%,100%,100%);fill-opacity:1;" d="M 1600.183594 298.03125 L 1719.683594 356.898438 L 1719.683594 330.242188 L 1631.367188 287.027344 L 1719.683594 243.867188 L 1719.683594 217.214844 L 1600.183594 275.703125 Z M 1600.183594 298.03125 "/>
</g>
<g clip-path="url(#clip7)" clip-rule="nonzero">
<path style=" stroke:none;fill-rule:nonzero;fill:rgb(100%,100%,100%);fill-opacity:1;" d="M 1731 380.457031 L 1757.324219 380.457031 L 1816.113281 193.601562 L 1790.003906 193.601562 Z M 1731 380.457031 "/>
</g>
</g>
</svg>
